<svg width="118" height="60" viewBox="0 0 118 60" fill="none" xmlns="http://www.w3.org/2000/svg">
<path d="M59.8518 34.0117L58.3738 18.246H63.4135L63.8548 28.3459H63.9883L67.9502 18.246H72.8667L73.5236 28.2741H73.6571L77.4035 18.246H82.4432L75.6996 34.0117H70.3315L69.3872 24.8253H69.2127L65.2302 34.0117H59.8518ZM88.8403 34.3094C87.1775 34.3094 85.8055 33.9672 84.7244 33.283C83.6501 32.5987 82.8939 31.6441 82.456 30.4193C82.0181 29.1944 81.9325 27.7711 82.1994 26.1494C82.4663 24.5345 83.0171 23.1181 83.8519 21.9001C84.6867 20.682 85.7542 19.7343 87.0543 19.0569C88.3544 18.3795 89.8291 18.0407 91.4782 18.0407C93.1341 18.0407 94.4992 18.3829 95.5735 19.0672C96.6547 19.7514 97.4142 20.706 97.8522 21.9308C98.297 23.1557 98.3859 24.5824 98.119 26.211C97.8522 27.8259 97.2979 29.2423 96.4563 30.4603C95.6146 31.6715 94.5471 32.6158 93.2539 33.2932C91.9606 33.9707 90.4894 34.3094 88.8403 34.3094ZM89.4048 30.5219C90.0207 30.5219 90.5715 30.3372 91.0573 29.9677C91.55 29.5981 91.964 29.0815 92.2993 28.4178C92.6346 27.754 92.8741 26.9842 93.0178 26.1083C93.1615 25.2462 93.1752 24.49 93.0588 23.84C92.9493 23.1831 92.7167 22.6733 92.3609 22.3106C92.005 21.9411 91.5226 21.7564 90.9136 21.7564C90.2978 21.7564 89.7435 21.9445 89.2508 22.3209C88.7582 22.6904 88.3442 23.207 88.0089 23.8708C87.6804 24.5277 87.4444 25.2975 87.3007 26.1802C87.157 27.0424 87.1399 27.7985 87.2493 28.4486C87.3588 29.0986 87.5949 29.6084 87.9576 29.9779C88.3202 30.3406 88.8026 30.5219 89.4048 30.5219ZM104.591 29.8753L105.607 23.8913H106.294L111.693 18.246H117.38L109.456 26.3342H108.132L104.591 29.8753ZM99.3867 34.0117L102.876 12.9908H107.896L104.406 34.0117H99.3867ZM109.179 34.0117L106.14 27.4632L110.051 23.9016L114.978 34.0117H109.179Z" fill="#8B9467"/>
<path d="M5.82414 33.6133H0.363625L10.9459 12.5924H17.71L21.3127 33.6133H15.8522L13.5428 17.8886H13.3785L5.82414 33.6133ZM6.48104 25.3404H17.8947L17.2378 29.1997H5.82414L6.48104 25.3404ZM34.7895 17.8476L34.1634 21.5427H24.0224L24.6485 17.8476H34.7895ZM24.1148 33.6133L26.8861 17.047C27.0845 15.829 27.478 14.8197 28.0665 14.0191C28.655 13.2116 29.3906 12.6095 30.2733 12.2126C31.156 11.8089 32.1277 11.607 33.1883 11.607C33.8931 11.607 34.5466 11.6617 35.1487 11.7712C35.7509 11.8739 36.1888 11.9663 36.4625 12.0484L35.0769 15.7229C34.8921 15.6613 34.6732 15.61 34.42 15.569C34.1736 15.5279 33.9307 15.5074 33.6912 15.5074C33.1096 15.5074 32.6888 15.6374 32.4287 15.8974C32.1687 16.1574 31.9976 16.5133 31.9155 16.9649L29.134 33.6133H24.1148ZM34.5842 33.6133L37.2118 17.8476H42.0873L41.6049 20.7215H41.7691C42.2275 19.6814 42.8263 18.9082 43.5653 18.4019C44.3043 17.8886 45.1049 17.632 45.9671 17.632C46.1998 17.632 46.4324 17.6492 46.6651 17.6834C46.9046 17.7107 47.1304 17.7518 47.3425 17.8065L46.6035 22.1791C46.3708 22.0901 46.0663 22.0251 45.69 21.984C45.3136 21.9361 44.9715 21.9122 44.6636 21.9122C44.0682 21.9122 43.514 22.0456 43.0008 22.3125C42.4944 22.5725 42.0633 22.9386 41.7075 23.4107C41.3585 23.8761 41.1293 24.4235 41.0198 25.053L39.6034 33.6133H34.5842ZM46.7497 33.6133L49.3774 17.8476H54.3965L51.7689 33.6133H46.7497ZM52.241 16.0001C51.5294 16.0001 50.9512 15.764 50.5064 15.2918C50.0616 14.8197 49.8871 14.2552 49.9829 13.5982C50.0787 12.9345 50.414 12.37 50.9888 11.9047C51.5636 11.4394 52.2034 11.2067 52.9082 11.2067C53.6199 11.2067 54.1912 11.4394 54.6223 11.9047C55.0603 12.37 55.2313 12.9345 55.1355 13.5982C55.0534 14.2552 54.725 14.8197 54.1502 15.2918C53.5822 15.764 52.9459 16.0001 52.241 16.0001Z" fill="#161B04"/>
<path d="M58.0908 13.1198L58.6156 16.7934H63.3388V14.6942L70.6859 6.29752L75.9338 5.77273L77.5082 8.92149L93.7768 10.4959L100.074 21.5165L101.642 12.8297L97.4504 4.72314L80.657 3.14876L79.0826 0L67.5371 1.04959L58.0908 13.1198Z" fill="#8B9467"/>
<path d="M99.5488 35.6875H104.272L103.747 43.0346L100.074 46.1834L99.5488 51.4313L93.2513 58.2536L85.9042 59.3032L80.6562 44.609L83.2802 37.7867C84.8546 38.8363 87.6535 38.6613 89.5777 38.3115L86.429 44.609L89.5777 53.0057H90.6273L94.3009 48.8073L94.8257 43.5594L99.024 40.4106L99.5488 35.6875Z" fill="#8B9467"/>
<path d="M111.308 42.5068H109.209C107.11 45.8655 107.285 49.3291 107.635 50.9035L110.259 51.4283L112.883 45.1308L113.407 39.8828L111.308 42.5068Z" fill="#8B9467"/>
</svg>
